<?xml version="1.0" standalone="no"?>
<!DOCTYPE svg PUBLIC "-//W3C//DTD SVG 20010904//EN"
 "http://www.w3.org/TR/2001/REC-SVG-20010904/DTD/svg10.dtd">
<svg version="1.0" xmlns="http://www.w3.org/2000/svg"
 width="1024.000000pt" height="1024.000000pt" viewBox="0 0 1024.000000 1024.000000"
 preserveAspectRatio="xMidYMid meet">
<metadata>
Created by potrace 1.14, written by Peter Selinger 2001-2017
</metadata>
<g transform="translate(0.000000,1024.000000) scale(0.100000,-0.100000)"
fill="#000000" stroke="none">
<path d="M5021 10185 c-51 -30 -95 -55 -97 -55 -2 0 -24 -13 -50 -30 -26 -16
-51 -27 -55 -24 -5 3 -9 0 -9 -6 0 -6 -13 -16 -30 -21 -16 -6 -30 -15 -30 -19
0 -5 -16 -14 -35 -20 -19 -6 -35 -15 -35 -20 0 -4 -8 -10 -17 -13 -10 -4 -45
-22 -78 -42 -33 -20 -72 -41 -87 -46 -16 -6 -28 -14 -28 -19 0 -4 -15 -13 -32
-21 -18 -7 -49 -23 -68 -35 -62 -39 -124 -74 -152 -85 -16 -6 -28 -15 -28 -19
0 -4 -11 -11 -25 -14 -14 -4 -25 -11 -25 -16 0 -6 -5 -10 -12 -10 -6 0 -53
-25 -103 -55 -51 -30 -98 -55 -104 -55 -6 0 -11 -4 -11 -9 0 -5 -16 -15 -35
-22 -19 -7 -35 -17 -35 -21 0 -4 -4 -8 -9 -8 -12 0 -245 -133 -249 -142 -2 -5
-8 -6 -13 -2 -5 3 -9 0 -9 -5 0 -6 -4 -11 -9 -11 -9 0 -222 -119 -231 -129 -3
-3 -11 -7 -19 -9 -7 -1 -29 -14 -47 -29 -19 -14 -34 -22 -34 -18 0 5 -8 2 -17
-6 -10 -8 -31 -21 -48 -29 -16 -8 -32 -17 -35 -20 -10 -10 -65 -42 -92 -53
-16 -6 -28 -15 -28 -19 0 -4 -5 -8 -11 -8 -6 0 -24 -9 -40 -21 -16 -11 -29
-17 -29 -12 0 4 -4 3 -8 -3 -4 -6 -32 -24 -62 -40 -30 -15 -61 -34 -68 -41 -7
-7 -24 -16 -38 -19 -13 -3 -24 -10 -24 -15 0 -5 -9 -9 -20 -9 -11 0 -20 -4
-20 -8 0 -5 -19 -18 -42 -30 -24 -12 -77 -42 -118 -66 -41 -25 -95 -55 -120
-68 -25 -13 -49 -27 -55 -31 -5 -4 -66 -40 -135 -79 -69 -39 -141 -80 -160
-91 -19 -11 -53 -30 -75 -42 -22 -13 -111 -64 -199 -114 -87 -50 -162 -91
-167 -91 -5 0 -9 -4 -9 -10 0 -5 -4 -10 -9 -10 -6 0 -81 -40 -167 -90 -87 -49
-161 -90 -166 -90 -4 0 -8 -4 -8 -10 0 -5 -4 -10 -9 -10 -7 0 -163 -87 -311
-173 -19 -11 -51 -29 -70 -39 -19 -10 -51 -28 -70 -39 -19 -12 -53 -31 -75
-42 -22 -12 -47 -29 -57 -37 -17 -14 -18 -133 -18 -2575 l0 -2561 28 -12 c35
-16 94 -49 159 -89 28 -17 54 -29 57 -26 3 4 6 2 6 -4 0 -5 18 -18 40 -28 22
-10 40 -23 40 -28 0 -6 3 -8 6 -4 4 3 25 -6 48 -21 22 -15 55 -34 71 -42 17
-8 32 -17 35 -20 3 -3 14 -10 25 -16 102 -55 141 -78 150 -84 6 -4 31 -20 58
-34 94 -52 133 -74 185 -105 29 -17 57 -31 62 -31 6 0 10 -3 10 -7 0 -5 10
-13 23 -19 39 -19 153 -82 213 -119 33 -19 65 -35 72 -35 6 0 12 -4 12 -9 0
-5 19 -18 43 -30 42 -21 60 -31 108 -63 14 -10 29 -15 33 -11 3 3 6 1 6 -5 0
-7 4 -12 9 -12 5 0 42 -19 83 -43 40 -23 85 -49 101 -56 15 -8 27 -18 27 -22
0 -4 12 -10 27 -14 16 -3 35 -13 43 -20 14 -12 43 -29 135 -78 22 -12 42 -24
45 -27 3 -3 20 -13 38 -22 17 -10 47 -26 64 -35 18 -10 35 -20 38 -23 3 -3 16
-11 30 -18 56 -27 160 -88 172 -100 6 -6 15 -12 19 -12 7 0 167 -89 199 -110
8 -6 29 -17 45 -26 17 -8 44 -23 60 -34 17 -10 50 -30 75 -43 49 -27 146 -82
170 -97 47 -30 193 -110 201 -110 5 0 9 -3 9 -7 0 -5 10 -13 23 -18 32 -16
111 -59 117 -65 3 -3 16 -11 30 -18 14 -7 43 -23 65 -36 22 -14 63 -36 90 -51
28 -15 75 -42 105 -60 30 -19 64 -38 75 -43 11 -6 70 -39 130 -74 61 -35 117
-67 125 -71 8 -4 38 -21 65 -37 28 -17 57 -34 65 -37 8 -4 17 -9 20 -12 5 -6
15 -12 96 -56 27 -14 63 -35 79 -45 17 -11 44 -26 60 -35 17 -8 48 -26 70 -39
22 -14 56 -32 75 -42 19 -10 52 -29 72 -42 l36 -24 44 24 c23 13 45 25 48 28
14 14 60 39 60 33 0 -5 4 -3 8 2 8 12 76 52 115 68 15 6 27 15 27 19 0 4 4 8
10 8 5 0 39 18 75 40 36 22 69 40 74 40 4 0 19 8 32 18 13 10 53 35 89 54 78
43 169 95 190 108 8 6 26 16 40 22 14 7 48 27 77 45 29 18 54 33 57 33 2 0 40
21 83 46 43 26 92 54 108 63 121 66 311 177 313 183 2 5 12 8 23 8 10 0 19 3
19 8 0 4 21 18 48 32 26 14 111 62 190 107 79 46 146 83 149 83 3 0 24 12 47
28 22 15 64 38 91 52 28 14 52 28 55 31 3 4 25 17 50 30 25 12 56 30 70 39 14
10 46 29 72 43 25 14 104 59 175 100 70 40 150 86 178 101 27 15 110 63 185
106 75 43 158 90 185 105 28 15 77 43 110 62 33 19 67 39 75 44 107 59 291
166 311 180 14 10 29 16 33 12 3 -3 6 -1 6 5 0 7 4 12 9 12 5 0 75 39 157 86
82 47 174 100 204 117 30 16 69 38 85 49 17 10 39 22 50 28 11 5 43 23 70 40
28 17 58 33 68 37 9 3 17 10 17 16 0 6 3 8 6 4 3 -3 30 10 59 29 30 19 56 34
59 34 2 0 39 20 80 45 42 25 81 45 86 45 7 0 9 908 8 2567 l-3 2566 -30 18
c-35 21 -162 92 -220 124 -66 36 -90 50 -95 55 -3 3 -25 16 -50 29 -25 13 -53
31 -62 39 -10 8 -18 12 -18 9 0 -3 -35 15 -77 41 -43 26 -99 58 -125 72 -27
14 -48 29 -48 33 0 5 -4 5 -10 2 -5 -3 -10 -2 -10 2 0 5 -12 14 -27 20 -16 7
-50 25 -78 42 -27 17 -67 38 -87 48 -21 10 -38 21 -38 25 0 5 -4 8 -9 8 -5 0
-44 20 -85 45 -42 25 -79 45 -83 45 -4 0 -14 6 -22 14 -9 7 -45 28 -81 47 -36
18 -67 36 -70 40 -3 3 -32 21 -65 38 -33 18 -78 43 -100 57 -22 14 -48 27 -57
31 -10 3 -18 9 -18 14 0 5 -3 8 -7 7 -7 -2 -108 52 -153 82 -8 6 -31 18 -50
28 -19 9 -36 20 -38 25 -2 4 -8 7 -13 7 -5 0 -26 11 -47 23 -34 22 -68 41
-202 114 -25 14 -52 30 -60 36 -8 7 -24 17 -35 23 -19 10 -51 28 -150 84 -22
12 -58 32 -80 43 -22 12 -42 25 -45 28 -3 3 -45 28 -95 56 -129 72 -373 211
-420 239 -22 14 -56 32 -75 42 -19 9 -36 20 -38 25 -2 4 -7 7 -12 7 -6 0 -126
66 -180 100 -33 21 -243 140 -246 140 -2 0 -37 20 -77 45 -41 25 -79 45 -85
45 -6 0 -12 3 -14 8 -1 4 -16 14 -33 23 -16 9 -70 39 -119 67 -49 29 -93 52
-97 52 -5 0 -9 5 -9 10 0 6 -5 10 -11 10 -9 0 -92 45 -149 80 -39 24 -172 100
-176 100 -2 0 -23 12 -47 27 -23 14 -44 26 -47 25 -3 0 -12 5 -20 11 -16 13
-76 47 -82 47 -1 0 -45 -25 -97 -55z"/>
</g>
</svg>
